<?xml version="1.0" encoding="UTF-8" standalone="no"?>
<!DOCTYPE svg PUBLIC "-//W3C//DTD SVG 1.1//EN"
 "http://www.w3.org/Graphics/SVG/1.1/DTD/svg11.dtd">
<!-- Generated by graphviz version 2.40.1 (20161225.0304)
 -->
<!-- Pages: 1 -->
<svg width="704pt" height="620pt"
 viewBox="0.00 0.00 704.24 620.00" xmlns="http://www.w3.org/2000/svg" xmlns:xlink="http://www.w3.org/1999/xlink">
<g id="graph0" class="graph" transform="scale(1 1) rotate(0) translate(4 616)">
<polygon fill="#ffffff" stroke="transparent" points="-4,4 -4,-616 700.2442,-616 700.2442,4 -4,4"/>
<!-- FSM&#45;008 -->
<g id="node1" class="node">
<title>FSM&#45;008</title>
<ellipse fill="none" stroke="#000000" cx="330.2442" cy="-594" rx="45.4919" ry="18"/>
<text text-anchor="middle" x="330.2442" y="-590.3" font-family="Times,serif" font-size="14.00" fill="#000000">FSM&#45;008</text>
</g>
<!-- state -->
<g id="node2" class="node">
<title>state</title>
<ellipse fill="none" stroke="#000000" cx="330.2442" cy="-522" rx="27.0966" ry="18"/>
<text text-anchor="middle" x="330.2442" y="-518.3" font-family="Times,serif" font-size="14.00" fill="#000000">state</text>
</g>
<!-- FSM&#45;008&#45;&#45;state -->
<g id="edge1" class="edge">
<title>FSM&#45;008&#45;&#45;state</title>
<path fill="none" stroke="#000000" d="M330.2442,-575.8314C330.2442,-565 330.2442,-551.2876 330.2442,-540.4133"/>
</g>
<!-- standby -->
<g id="node3" class="node">
<title>standby</title>
<ellipse fill="none" stroke="#000000" cx="215.2442" cy="-522" rx="38.9931" ry="18"/>
<text text-anchor="middle" x="215.2442" y="-518.3" font-family="Times,serif" font-size="14.00" fill="#000000">standby</text>
</g>
<!-- FSM&#45;008&#45;&#45;standby -->
<g id="edge2" class="edge">
<title>FSM&#45;008&#45;&#45;standby</title>
<path fill="none" stroke="#000000" d="M305.8556,-578.7307C285.9441,-566.2643 257.9968,-548.7669 238.421,-536.5107"/>
</g>
<!-- STATE -->
<g id="node4" class="node">
<title>STATE</title>
<ellipse fill="none" stroke="#000000" cx="373.2442" cy="-234" rx="38.9931" ry="18"/>
<text text-anchor="middle" x="373.2442" y="-230.3" font-family="Times,serif" font-size="14.00" fill="#000000">STATE</text>
</g>
<!-- FSM&#45;008&#45;&#45;STATE -->
<g id="edge3" class="edge">
<title>FSM&#45;008&#45;&#45;STATE</title>
<path fill="none" stroke="#000000" d="M372.229,-586.6872C468.3654,-568.7521 696.2442,-518.9656 696.2442,-450 696.2442,-450 696.2442,-450 696.2442,-378 696.2442,-317.2085 647.1822,-316.0409 593.2442,-288 534.0981,-257.2516 456.8288,-243.5478 411.3644,-237.7976"/>
</g>
<!-- FSM&#45;003 -->
<g id="node6" class="node">
<title>FSM&#45;003</title>
<ellipse fill="none" stroke="#000000" cx="585.2442" cy="-450" rx="45.4919" ry="18"/>
<text text-anchor="middle" x="585.2442" y="-446.3" font-family="Times,serif" font-size="14.00" fill="#000000">FSM&#45;003</text>
</g>
<!-- state&#45;&#45;FSM&#45;003 -->
<g id="edge9" class="edge">
<title>state&#45;&#45;FSM&#45;003</title>
<path fill="none" stroke="#000000" d="M355.6783,-515.2302C393.1176,-505.2113 465.23,-485.7087 526.2442,-468 533.752,-465.8209 541.7756,-463.421 549.4102,-461.1033"/>
</g>
<!-- FSM&#45;006 -->
<g id="node7" class="node">
<title>FSM&#45;006</title>
<ellipse fill="none" stroke="#000000" cx="330.2442" cy="-450" rx="45.4919" ry="18"/>
<text text-anchor="middle" x="330.2442" y="-446.3" font-family="Times,serif" font-size="14.00" fill="#000000">FSM&#45;006</text>
</g>
<!-- state&#45;&#45;FSM&#45;006 -->
<g id="edge10" class="edge">
<title>state&#45;&#45;FSM&#45;006</title>
<path fill="none" stroke="#000000" d="M330.2442,-503.8314C330.2442,-493 330.2442,-479.2876 330.2442,-468.4133"/>
</g>
<!-- FSM&#45;007 -->
<g id="node8" class="node">
<title>FSM&#45;007</title>
<ellipse fill="none" stroke="#000000" cx="509.2442" cy="-306" rx="45.4919" ry="18"/>
<text text-anchor="middle" x="509.2442" y="-302.3" font-family="Times,serif" font-size="14.00" fill="#000000">FSM&#45;007</text>
</g>
<!-- state&#45;&#45;FSM&#45;007 -->
<g id="edge11" class="edge">
<title>state&#45;&#45;FSM&#45;007</title>
<path fill="none" stroke="#000000" d="M356.8382,-517.0696C398.7437,-508.6994 477.0564,-490.4158 493.2442,-468 502.6115,-455.0287 494.129,-447.9755 493.2442,-432 491.4718,-399.9997 483.5899,-391.5466 489.2442,-360 491.4665,-347.6009 496.3462,-334.3258 500.7291,-324.0406"/>
</g>
<!-- FSM&#45;004 -->
<g id="node9" class="node">
<title>FSM&#45;004</title>
<ellipse fill="none" stroke="#000000" cx="439.2442" cy="-450" rx="45.4919" ry="18"/>
<text text-anchor="middle" x="439.2442" y="-446.3" font-family="Times,serif" font-size="14.00" fill="#000000">FSM&#45;004</text>
</g>
<!-- state&#45;&#45;FSM&#45;004 -->
<g id="edge12" class="edge">
<title>state&#45;&#45;FSM&#45;004</title>
<path fill="none" stroke="#000000" d="M349.7312,-509.1278C368.2241,-496.9123 396.0441,-478.5358 415.7542,-465.5163"/>
</g>
<!-- FSM&#45;005 -->
<g id="node12" class="node">
<title>FSM&#45;005</title>
<ellipse fill="none" stroke="#000000" cx="75.2442" cy="-450" rx="45.4919" ry="18"/>
<text text-anchor="middle" x="75.2442" y="-446.3" font-family="Times,serif" font-size="14.00" fill="#000000">FSM&#45;005</text>
</g>
<!-- state&#45;&#45;FSM&#45;005 -->
<g id="edge13" class="edge">
<title>state&#45;&#45;FSM&#45;005</title>
<path fill="none" stroke="#000000" d="M304.6236,-515.1209C252.5917,-501.145 138.7309,-470.5325 130.2442,-468 123.6975,-466.0464 116.7481,-463.8606 110.0719,-461.7039"/>
</g>
<!-- FSM&#45;002 -->
<g id="node13" class="node">
<title>FSM&#45;002</title>
<ellipse fill="none" stroke="#000000" cx="184.2442" cy="-450" rx="45.4919" ry="18"/>
<text text-anchor="middle" x="184.2442" y="-446.3" font-family="Times,serif" font-size="14.00" fill="#000000">FSM&#45;002</text>
</g>
<!-- state&#45;&#45;FSM&#45;002 -->
<g id="edge14" class="edge">
<title>state&#45;&#45;FSM&#45;002</title>
<path fill="none" stroke="#000000" d="M308.0699,-511.0647C282.6228,-498.5155 240.8175,-477.8992 212.9162,-464.1396"/>
</g>
<!-- FSM&#45;009 -->
<g id="node14" class="node">
<title>FSM&#45;009</title>
<ellipse fill="none" stroke="#000000" cx="257.2442" cy="-162" rx="45.4919" ry="18"/>
<text text-anchor="middle" x="257.2442" y="-158.3" font-family="Times,serif" font-size="14.00" fill="#000000">FSM&#45;009</text>
</g>
<!-- state&#45;&#45;FSM&#45;009 -->
<g id="edge15" class="edge">
<title>state&#45;&#45;FSM&#45;009</title>
<path fill="none" stroke="#000000" d="M311.9593,-508.4102C299.9739,-498.5203 284.9633,-484.0852 276.2442,-468 256.762,-432.059 257.2442,-418.8816 257.2442,-378 257.2442,-378 257.2442,-378 257.2442,-306 257.2442,-260.75 257.2442,-207.5017 257.2442,-180.1854"/>
</g>
<!-- standby&#45;&#45;FSM&#45;006 -->
<g id="edge16" class="edge">
<title>standby&#45;&#45;FSM&#45;006</title>
<path fill="none" stroke="#000000" d="M238.5161,-507.4297C258.0743,-495.1846 285.9394,-477.7386 305.816,-465.2941"/>
</g>
<!-- standby&#45;&#45;FSM&#45;004 -->
<g id="edge17" class="edge">
<title>standby&#45;&#45;FSM&#45;004</title>
<path fill="none" stroke="#000000" d="M247.6642,-511.7152C281.7014,-500.9 336.7664,-483.3541 384.2442,-468 390.649,-465.9287 397.4687,-463.7086 404.0473,-461.5596"/>
</g>
<!-- FSM&#45;001 -->
<g id="node11" class="node">
<title>FSM&#45;001</title>
<ellipse fill="none" stroke="#000000" cx="199.2442" cy="-18" rx="45.4919" ry="18"/>
<text text-anchor="middle" x="199.2442" y="-14.3" font-family="Times,serif" font-size="14.00" fill="#000000">FSM&#45;001</text>
</g>
<!-- standby&#45;&#45;FSM&#45;001 -->
<g id="edge20" class="edge">
<title>standby&#45;&#45;FSM&#45;001</title>
<path fill="none" stroke="#000000" d="M178.1195,-516.3344C128.0108,-507.9325 42.5373,-490.6883 21.2442,-468 -6.7325,-438.1903 2.2442,-418.8816 2.2442,-378 2.2442,-378 2.2442,-378 2.2442,-162 2.2442,-84.4733 102.9115,-44.2013 160.3233,-27.5377"/>
</g>
<!-- standby&#45;&#45;FSM&#45;005 -->
<g id="edge18" class="edge">
<title>standby&#45;&#45;FSM&#45;005</title>
<path fill="none" stroke="#000000" d="M188.9112,-508.4574C164.5151,-495.9108 128.337,-477.3049 103.3805,-464.4701"/>
</g>
<!-- standby&#45;&#45;FSM&#45;002 -->
<g id="edge19" class="edge">
<title>standby&#45;&#45;FSM&#45;002</title>
<path fill="none" stroke="#000000" d="M207.5812,-504.2022C202.8119,-493.1252 196.6993,-478.928 191.9264,-467.8425"/>
</g>
<!-- STATE&#45;&#45;FSM&#45;009 -->
<g id="edge29" class="edge">
<title>STATE&#45;&#45;FSM&#45;009</title>
<path fill="none" stroke="#000000" d="M349.7698,-219.4297C330.0416,-207.1846 301.9342,-189.7386 281.8847,-177.2941"/>
</g>
<!-- good -->
<g id="node5" class="node">
<title>good</title>
<ellipse fill="none" stroke="#000000" cx="512.2442" cy="-522" rx="29.4969" ry="18"/>
<text text-anchor="middle" x="512.2442" y="-518.3" font-family="Times,serif" font-size="14.00" fill="#000000">good</text>
</g>
<!-- good&#45;&#45;FSM&#45;003 -->
<g id="edge4" class="edge">
<title>good&#45;&#45;FSM&#45;003</title>
<path fill="none" stroke="#000000" d="M528.0841,-506.3771C539.9093,-494.7139 556.0484,-478.7958 568.162,-466.8481"/>
</g>
<!-- good&#45;&#45;FSM&#45;006 -->
<g id="edge5" class="edge">
<title>good&#45;&#45;FSM&#45;006</title>
<path fill="none" stroke="#000000" d="M487.3194,-512.1397C454.9006,-499.3146 398.2075,-476.8866 362.529,-462.772"/>
</g>
<!-- good&#45;&#45;FSM&#45;007 -->
<g id="edge6" class="edge">
<title>good&#45;&#45;FSM&#45;007</title>
<path fill="none" stroke="#000000" d="M541.2626,-518.7879C571.5429,-513.7167 617.5671,-500.7723 639.2442,-468 667.3162,-425.5595 636.4036,-396.7838 601.2442,-360 584.2243,-342.1938 560.0572,-328.314 540.7631,-319.0871"/>
</g>
<!-- good&#45;&#45;FSM&#45;004 -->
<g id="edge7" class="edge">
<title>good&#45;&#45;FSM&#45;004</title>
<path fill="none" stroke="#000000" d="M496.4042,-506.3771C484.579,-494.7139 468.4399,-478.7958 456.3263,-466.8481"/>
</g>
<!-- FSM&#45;003&#45;&#45;STATE -->
<g id="edge22" class="edge">
<title>FSM&#45;003&#45;&#45;STATE</title>
<path fill="none" stroke="#000000" d="M592.0636,-431.7996C595.5722,-421.4645 599.4758,-408.1925 601.2442,-396 608.5476,-345.6423 602.7772,-320.037 563.2442,-288 539.6656,-268.8923 457.8637,-250.3927 409.6219,-240.7945"/>
</g>
<!-- supported -->
<g id="node15" class="node">
<title>supported</title>
<ellipse fill="none" stroke="#000000" cx="545.2442" cy="-378" rx="46.5926" ry="18"/>
<text text-anchor="middle" x="545.2442" y="-374.3" font-family="Times,serif" font-size="14.00" fill="#000000">supported</text>
</g>
<!-- FSM&#45;003&#45;&#45;supported -->
<g id="edge21" class="edge">
<title>FSM&#45;003&#45;&#45;supported</title>
<path fill="none" stroke="#000000" d="M575.3565,-432.2022C569.2026,-421.1252 561.3153,-406.928 555.1567,-395.8425"/>
</g>
<!-- FSM&#45;006&#45;&#45;STATE -->
<g id="edge24" class="edge">
<title>FSM&#45;006&#45;&#45;STATE</title>
<path fill="none" stroke="#000000" d="M333.8363,-431.9555C341.9304,-391.2967 361.5189,-292.8988 369.6319,-252.1451"/>
</g>
<!-- FSM&#45;007&#45;&#45;STATE -->
<g id="edge25" class="edge">
<title>FSM&#45;007&#45;&#45;STATE</title>
<path fill="none" stroke="#000000" d="M481.7225,-291.4297C457.5062,-278.6093 422.5214,-260.088 398.8846,-247.5744"/>
</g>
<!-- FSM&#45;004&#45;&#45;STATE -->
<g id="edge26" class="edge">
<title>FSM&#45;004&#45;&#45;STATE</title>
<path fill="none" stroke="#000000" d="M433.7305,-431.9555C421.2761,-391.1954 391.0909,-292.4077 378.6956,-251.8413"/>
</g>
<!-- limits -->
<g id="node10" class="node">
<title>limits</title>
<ellipse fill="none" stroke="#000000" cx="239.2442" cy="-90" rx="31.3957" ry="18"/>
<text text-anchor="middle" x="239.2442" y="-86.3" font-family="Times,serif" font-size="14.00" fill="#000000">limits</text>
</g>
<!-- limits&#45;&#45;FSM&#45;001 -->
<g id="edge8" class="edge">
<title>limits&#45;&#45;FSM&#45;001</title>
<path fill="none" stroke="#000000" d="M229.5613,-72.5708C223.3648,-61.4171 215.3487,-46.9882 209.1158,-35.7689"/>
</g>
<!-- FSM&#45;005&#45;&#45;STATE -->
<g id="edge27" class="edge">
<title>FSM&#45;005&#45;&#45;STATE</title>
<path fill="none" stroke="#000000" d="M95.7845,-433.9331C133.8175,-404.3327 218.0105,-339.5041 291.2442,-288 310.7642,-274.2719 333.4581,-259.409 350.0166,-248.7582"/>
</g>
<!-- FSM&#45;002&#45;&#45;STATE -->
<g id="edge28" class="edge">
<title>FSM&#45;002&#45;&#45;STATE</title>
<path fill="none" stroke="#000000" d="M199.3913,-432.6889C234.9552,-392.0445 323.4355,-290.9241 358.5476,-250.7961"/>
</g>
<!-- apfail -->
<g id="node16" class="node">
<title>apfail</title>
<ellipse fill="none" stroke="#000000" cx="159.2442" cy="-90" rx="31.3957" ry="18"/>
<text text-anchor="middle" x="159.2442" y="-86.3" font-family="Times,serif" font-size="14.00" fill="#000000">apfail</text>
</g>
<!-- FSM&#45;009&#45;&#45;apfail -->
<g id="edge30" class="edge">
<title>FSM&#45;009&#45;&#45;apfail</title>
<path fill="none" stroke="#000000" d="M235.4948,-146.0209C218.465,-133.5092 194.9963,-116.2669 178.6095,-104.2276"/>
</g>
<!-- supported&#45;&#45;FSM&#45;007 -->
<g id="edge23" class="edge">
<title>supported&#45;&#45;FSM&#45;007</title>
<path fill="none" stroke="#000000" d="M536.3453,-360.2022C530.8067,-349.1252 523.7082,-334.928 518.1654,-323.8425"/>
</g>
<!-- apfail&#45;&#45;FSM&#45;001 -->
<g id="edge32" class="edge">
<title>apfail&#45;&#45;FSM&#45;001</title>
<path fill="none" stroke="#000000" d="M168.927,-72.5708C175.1235,-61.4171 183.1396,-46.9882 189.3726,-35.7689"/>
</g>
<!-- pullup -->
<g id="node17" class="node">
<title>pullup</title>
<ellipse fill="none" stroke="#000000" cx="322.2442" cy="-90" rx="33.5952" ry="18"/>
<text text-anchor="middle" x="322.2442" y="-86.3" font-family="Times,serif" font-size="14.00" fill="#000000">pullup</text>
</g>
<!-- pullup&#45;&#45;FSM&#45;001 -->
<g id="edge31" class="edge">
<title>pullup&#45;&#45;FSM&#45;001</title>
<path fill="none" stroke="#000000" d="M299.3971,-76.6261C278.277,-64.2631 246.9292,-45.9132 224.9447,-33.0442"/>
</g>
</g>
</svg>
